<?xml version="1.0" encoding="iso-8859-1"?>
<!-- Generator: Adobe Illustrator 16.0.0, SVG Export Plug-In . SVG Version: 6.00 Build 0)  -->
<!DOCTYPE svg PUBLIC "-//W3C//DTD SVG 1.1//EN" "http://www.w3.org/Graphics/SVG/1.1/DTD/svg11.dtd">
<svg version="1.1" id="Capa_1" xmlns="http://www.w3.org/2000/svg" xmlns:xlink="http://www.w3.org/1999/xlink" x="0px" y="0px"
	 width="108.727px" height="108.727px" viewBox="0 0 108.727 108.727" style="enable-background:new 0 0 108.727 108.727;"
	 xml:space="preserve">
<g>
	<path d="M0,7.988v92.75h108.727V7.988H0z M93.264,23.988v-13h12.462v38.083c-0.959-3.135-2.521-7.012-4.849-9.583h4.708v-0.5
		h-5.191c-1.417-1.389-3.097-2.292-5.079-2.292c-0.729,0-1.41,0.129-2.051,0.35V24.488h12.321v-0.5H93.264z M93.264,39.488h4.587
		c3.955,2.538,6.298,10.543,7.06,14.5H93.265L93.264,39.488L93.264,39.488z M93.777,38.988c0.485-0.189,0.998-0.292,1.537-0.292
		c0.543,0,1.062,0.103,1.559,0.292H93.777z M78.264,10.988h14.5v13h-14.5V10.988z M78.264,24.488h14.5v12.757
		c-0.902,0.399-1.716,0.999-2.445,1.743H78.264V24.488z M78.264,39.488h11.592c-3.873,4.472-5.236,12.898-5.466,14.5h-6.126V39.488z
		 M84.318,54.488c-0.517,3.7-2.395,11.589-6.055,14.465V54.488H84.318z M63.264,52.413c0.137,0.572,0.25,1.103,0.342,1.575h-0.342
		V52.413z M63.264,54.488h0.434c0.004,0.018,0.008,0.039,0.011,0.057h0.005c0.119,0.688,1.732,9.621,5.88,14.443h-6.328
		L63.264,54.488L63.264,54.488z M65.734,54.488h12.029v14.5H72.48C68.662,66.149,66.422,58.231,65.734,54.488z M77.447,69.488
		c-0.642,0.346-1.33,0.542-2.071,0.542c-0.743,0-1.444-0.196-2.103-0.542H77.447z M63.264,10.988h14.5v13h-14.5V10.988z
		 M63.264,24.488h14.5v14.5h-14.5V24.488z M77.764,39.488v14.5H65.638c-0.17-0.925-0.888-4.521-2.374-8.203v-6.297H77.764z
		 M62.764,44.617c-0.847-1.88-1.9-3.704-3.191-5.129h3.191V44.617z M48.264,10.988h14.5v13h-14.5V10.988z M48.264,24.488h14.5v14.5
		h-3.675c-1.417-1.388-3.097-2.292-5.08-2.292c-1.988,0-3.635,0.903-4.997,2.292h-0.748V24.488z M55.567,38.988h-3.098
		c0.487-0.189,1-0.292,1.54-0.292C54.551,38.696,55.07,38.799,55.567,38.988z M48.55,39.488c-0.097,0.111-0.192,0.222-0.285,0.338
		v-0.338H48.55z M33.264,10.988h14.5v13h-14.5V10.988z M33.264,24.488h14.5v14.5h-14.5V24.488z M33.264,39.488h14.5v1
		c-3.276,4.627-4.468,12.01-4.681,13.5h-9.819V39.488z M33.264,54.488h9.747c-0.515,3.716-2.404,11.655-6.099,14.5h-3.648V54.488z
		 M36.144,69.488c-0.643,0.346-1.332,0.542-2.074,0.542c-0.275,0-0.542-0.034-0.806-0.085v-0.457H36.144z M24.334,53.988
		c-0.275-1.497-1.988-10-6.066-14.5h14.497v14.5H24.334z M22.3,53.988h-4.035V42.831C20.416,46.319,21.759,51.175,22.3,53.988z
		 M18.264,54.488h4.128c0.003,0.018,0.007,0.039,0.01,0.057h0.005c0.118,0.688,1.733,9.621,5.88,14.443H18.264V54.488z
		 M24.428,54.488h8.336v14.5h-1.59C27.355,66.149,25.115,58.231,24.428,54.488z M32.764,69.488v0.331
		c-0.272-0.086-0.539-0.195-0.798-0.331H32.764z M18.264,10.988h14.5v13h-14.5V10.988z M18.264,24.488h14.5v14.5h-14.5V24.488z
		 M17.764,10.988v13H3.14v0.5h14.624v14.48c-1.413-1.377-3.087-2.272-5.061-2.272c-1.988,0-3.634,0.903-4.997,2.292H3.14v0.5h4.104
		C5.196,41.854,3.848,45.323,3,48.311V10.988H17.764z M14.261,38.988h-3.096c0.486-0.189,0.999-0.292,1.538-0.292
		C13.246,38.696,13.764,38.799,14.261,38.988z M17.764,68.988H3.14v0.5h14.624v14.5H3.14v0.5h14.624v13.25H3V54.411l0.141,0.019
		v0.06h0.464l0.122,0.017c0.001-0.006,0.002-0.012,0.002-0.017h14.036L17.764,68.988L17.764,68.988z M3.799,53.988
		c0.583-3.932,2.576-11.958,6.413-14.5h5.028c0.931,0.597,1.771,1.497,2.524,2.576v11.924H3.799z M32.764,97.738h-14.5v-13.25h14.5
		V97.738z M18.264,83.988v-14.5h10.472c1.153,1.203,2.49,2.075,4.028,2.398v12.102H18.264z M47.764,97.738h-14.5v-13.25h14.5V97.738
		z M47.764,83.988h-14.5v-12.01c0.263,0.033,0.531,0.052,0.806,0.052c2.107,0,3.833-1.01,5.24-2.542h8.454V83.988z M47.764,68.988
		h-8.023c3.96-4.832,5.197-13.793,5.287-14.484h0.004c0.001-0.005,0.001-0.011,0.002-0.016h2.73V68.988z M45.103,53.988
		c0.349-2.357,1.205-6.184,2.661-9.422v9.422H45.103z M62.764,97.738h-14.5v-13.25h14.5V97.738z M62.764,83.988h-14.5v-14.5h14.5
		V83.988z M62.764,68.988h-14.5v-14.5h14.5V68.988z M48.264,53.988V43.527c0.888-1.722,1.965-3.188,3.251-4.039h5.03
		c2.988,1.919,5.059,6.961,6.219,11.02v3.48H48.264z M77.764,97.738h-14.5v-13.25h14.5V97.738z M63.264,83.988v-14.5h6.778
		c1.469,1.532,3.231,2.542,5.333,2.542c0.857,0,1.65-0.174,2.389-0.476v12.434H63.264z M92.764,97.738h-14.5v-13.25h14.5V97.738z
		 M92.764,83.988h-14.5V71.33c0.868-0.443,1.648-1.078,2.352-1.842h12.148V83.988z M92.764,68.988H81.047
		c3.959-4.831,5.197-13.79,5.288-14.484h0.004c0.001-0.005,0.001-0.011,0.002-0.016h6.424L92.764,68.988L92.764,68.988z
		 M86.41,53.988c0.58-3.911,2.557-11.872,6.354-14.458v14.458H86.41z M93.264,97.738v-13.25h12.321v-0.5H93.264v-14.5h12.321v-0.5
		H93.264v-14.5h11.739c0.003,0.018,0.007,0.039,0.01,0.057l0.331-0.057h0.241v-0.041l0.141-0.023v43.314H93.264z"/>
</g>
<g>
</g>
<g>
</g>
<g>
</g>
<g>
</g>
<g>
</g>
<g>
</g>
<g>
</g>
<g>
</g>
<g>
</g>
<g>
</g>
<g>
</g>
<g>
</g>
<g>
</g>
<g>
</g>
<g>
</g>
</svg>
