<?xml version="1.0" encoding="iso-8859-1"?>
<!-- Generator: Adobe Illustrator 18.0.0, SVG Export Plug-In . SVG Version: 6.00 Build 0)  -->
<!DOCTYPE svg PUBLIC "-//W3C//DTD SVG 1.1//EN" "http://www.w3.org/Graphics/SVG/1.1/DTD/svg11.dtd">
<svg version="1.1" id="Capa_1" xmlns="http://www.w3.org/2000/svg" xmlns:xlink="http://www.w3.org/1999/xlink" x="0px" y="0px"
	 viewBox="0 0 205.398 205.398" style="enable-background:new 0 0 205.398 205.398;" xml:space="preserve">
<path d="M66.81,146.185v27.713l0.03,0.666c0.95,10.665,9.668,30.834,35.859,30.834c26.191,0,34.909-20.169,35.859-30.835
	l0.029-28.379c25.432-13.301,41.611-39.745,41.611-68.685c0-42.733-34.767-77.5-77.5-77.5c-42.733,0-77.5,34.767-77.5,77.5
	C25.199,106.438,41.378,132.882,66.81,146.185z M102.699,190.398c-8.074,0-13.781-2.657-17.448-8.124
	c-0.195-0.291-0.377-0.584-0.551-0.876h35.999c-0.174,0.292-0.355,0.585-0.551,0.876
	C116.48,187.741,110.773,190.398,102.699,190.398z M102.699,15c34.463,0,62.5,28.038,62.5,62.5
	c0,24.674-14.585,47.099-37.157,57.129l-4.454,1.979v29.79H81.81v-29.79l-4.454-1.98C54.784,124.598,40.199,102.173,40.199,77.5
	C40.199,43.038,68.237,15,102.699,15z"/>
<g>
</g>
<g>
</g>
<g>
</g>
<g>
</g>
<g>
</g>
<g>
</g>
<g>
</g>
<g>
</g>
<g>
</g>
<g>
</g>
<g>
</g>
<g>
</g>
<g>
</g>
<g>
</g>
<g>
</g>
</svg>
