<?xml version="1.0"?>
<svg xmlns:rdf="http://www.w3.org/1999/02/22-rdf-syntax-ns#" xmlns="http://www.w3.org/2000/svg" xmlns:cc="http://creativecommons.org/ns#" xmlns:dc="http://purl.org/dc/elements/1.1/" xmlns:svg="http://www.w3.org/2000/svg" id="svg2" viewBox="0 0 222.66 62.909" version="1.0">
  <g id="layer1" transform="translate(-81.717 -296.69)">
    <g id="g9489" transform="translate(26.268 135.33)">
      <path id="path2928" d="m126.01 176.12h-50.085" stroke="#000" stroke-width="2.5971px" fill="none"/>
      <path id="path2930" d="m126.01 210.44h-50.085" stroke="#000" stroke-width="2.5971px" fill="none"/>
      <path id="text2934" d="m62.388 170.57l-2.779 7.53h5.569l-2.79-7.53m-1.156-2.02h2.323l5.773 15.14h-2.131l-1.38-3.88h-6.827l-1.38 3.88h-2.161l5.783-15.14"/>
      <path id="path2898" stroke-linejoin="round" d="m125.62 162.68c16.68 0.13 33.38-0.4 50.03 0.68 7.18 1.17 10.19 3.13 14.45 7.11 6.89 6.7 9.38 17.11 8.57 26.31-0.47 7.14-3.91 15-10.06 19.72-3.61 2.74-7.74 4.44-13.11 5.38-10.04 1.33-20.2 0.75-30.3 0.94-6.53 0-13.05 0.01-19.58 0.15v-60.29z" stroke="#0000a9" stroke-width="2.5971" fill="none"/>
      <path id="path2932" d="m258.42 192.49h-50.09" stroke="#000" stroke-width="2.5971px" fill="none"/>
      <path id="text2942" d="m265.33 184.78h2.21l4.2 6.23 4.17-6.23h2.2l-5.36 7.93v7.22h-2.06v-7.22l-5.36-7.93"/>
      <path id="path2900" stroke-linejoin="round" d="m262.64 439.45a1.7046 1.7678 0 1 1 -3.41 0 1.7046 1.7678 0 1 1 3.41 0z" transform="matrix(2.5971 0 0 2.5971 -473.24 -948.49)" stroke="#0000a9" fill="none"/>
      <path id="text2938" d="m59.839 210.78v5.55h3.287c1.102 0 1.917-0.23 2.445-0.68 0.534-0.46 0.801-1.16 0.801-2.1 0-0.95-0.267-1.64-0.801-2.09-0.528-0.45-1.343-0.68-2.445-0.68h-3.287m0-6.23v4.57h3.033c1.001 0 1.745-0.19 2.232-0.56 0.494-0.38 0.741-0.96 0.741-1.73 0-0.76-0.247-1.33-0.741-1.71-0.487-0.38-1.231-0.57-2.232-0.57h-3.033m-2.049-1.68h5.235c1.562 0 2.766 0.32 3.611 0.97 0.846 0.65 1.268 1.57 1.268 2.77 0 0.93-0.216 1.66-0.649 2.21s-1.069 0.89-1.907 1.03c1.008 0.21 1.789 0.67 2.343 1.36 0.562 0.68 0.842 1.53 0.842 2.56 0 1.36-0.46 2.4-1.379 3.14-0.92 0.73-2.229 1.1-3.926 1.1h-5.438v-15.14"/>
    </g>
  </g>
  <metadata>
    <rdf:RDF>
      <cc:Work>
        <dc:format>image/svg+xml</dc:format>
        <dc:type rdf:resource="http://purl.org/dc/dcmitype/StillImage"/>
        <cc:license rdf:resource="http://creativecommons.org/licenses/publicdomain/"/>
        <dc:publisher>
          <cc:Agent rdf:about="http://openclipart.org/">
            <dc:title>Openclipart</dc:title>
          </cc:Agent>
        </dc:publisher>
        <dc:title>logic functions - digital electronics</dc:title>
        <dc:date>2008-02-06T04:29:40</dc:date>
        <dc:description>anyone who know these symbols better and can add each one as a separate file properly named - please do so.</dc:description>
        <dc:source>http://openclipart.org/detail/13105/logic-functions---digital-electronics-by-anonymous-13105</dc:source>
        <dc:creator>
          <cc:Agent>
            <dc:title>Anonymous</dc:title>
          </cc:Agent>
        </dc:creator>
        <dc:subject>
          <rdf:Bag>
            <rdf:li>clip art</rdf:li>
            <rdf:li>clipart</rdf:li>
            <rdf:li>comment problem</rdf:li>
            <rdf:li>computer</rdf:li>
            <rdf:li>digital</rdf:li>
            <rdf:li>electronic</rdf:li>
            <rdf:li>function</rdf:li>
            <rdf:li>image</rdf:li>
            <rdf:li>logic</rdf:li>
            <rdf:li>logic gate</rdf:li>
            <rdf:li>media</rdf:li>
            <rdf:li>png</rdf:li>
            <rdf:li>public domain</rdf:li>
            <rdf:li>svg</rdf:li>
            <rdf:li>symbol</rdf:li>
          </rdf:Bag>
        </dc:subject>
      </cc:Work>
      <cc:License rdf:about="http://creativecommons.org/licenses/publicdomain/">
        <cc:permits rdf:resource="http://creativecommons.org/ns#Reproduction"/>
        <cc:permits rdf:resource="http://creativecommons.org/ns#Distribution"/>
        <cc:permits rdf:resource="http://creativecommons.org/ns#DerivativeWorks"/>
      </cc:License>
    </rdf:RDF>
  </metadata>
</svg>
