<?xml version="1.0"?>
<svg xmlns:rdf="http://www.w3.org/1999/02/22-rdf-syntax-ns#" xmlns="http://www.w3.org/2000/svg" xmlns:cc="http://creativecommons.org/ns#" xmlns:dc="http://purl.org/dc/elements/1.1/" xmlns:svg="http://www.w3.org/2000/svg" id="svg2" viewBox="0 0 213.93 67.6" version="1.0">
  <g id="layer1" transform="translate(-84.238 -502.11)">
    <g id="g9514" transform="translate(26.268 135.33)">
      <path id="path4508" d="m128.53 383.35h-50.085" stroke="#000" stroke-width="2.5971px" fill="none"/>
      <path id="path4510" d="m128.53 417.67h-50.085" stroke="#000" stroke-width="2.5971px" fill="none"/>
      <path id="text4512" d="m64.909 377.8l-2.78 7.54h5.569l-2.789-7.54m-1.157-2.02h2.323l5.773 15.15h-2.131l-1.379-3.89h-6.828l-1.38 3.89h-2.161l5.783-15.15"/>
      <path id="path4516" d="m252.21 401.09h-50.09" stroke="#000" stroke-width="2.5971px" fill="none"/>
      <path id="text4518" d="m259.12 393.37h2.2l4.2 6.23 4.17-6.23h2.21l-5.36 7.94v7.21h-2.06v-7.21l-5.36-7.94"/>
      <path id="path4522" d="m122.13 368.07c7.26 12.58 9.04 22.09 9.04 32.49 0 12.55-3.15 22.31-9.04 32.51 22.79 0 57.7-10.86 70.47-31.83-12.9-19.5-48.05-33.17-70.47-33.17z" stroke="#0000a9" stroke-width="2.6" fill="none"/>
      <path id="text4524" d="m62.359 418.01v5.55h3.287c1.103 0 1.918-0.22 2.445-0.68 0.535-0.46 0.802-1.16 0.802-2.1s-0.267-1.64-0.802-2.09c-0.527-0.45-1.342-0.68-2.445-0.68h-3.287m0-6.23v4.57h3.034c1.001 0 1.745-0.19 2.232-0.56 0.493-0.38 0.74-0.95 0.74-1.72s-0.247-1.34-0.74-1.72c-0.487-0.38-1.231-0.57-2.232-0.57h-3.034m-2.049-1.68h5.235c1.562 0 2.766 0.32 3.611 0.97 0.846 0.65 1.269 1.58 1.269 2.77 0 0.93-0.217 1.67-0.65 2.21-0.433 0.55-1.068 0.89-1.907 1.03 1.008 0.22 1.789 0.67 2.344 1.36 0.561 0.68 0.842 1.54 0.842 2.57 0 1.35-0.46 2.39-1.38 3.13s-2.229 1.11-3.926 1.11h-5.438v-15.15"/>
      <path id="path6044" stroke-linejoin="round" d="m262.64 439.45a1.7046 1.7678 0 1 1 -3.41 0 1.7046 1.7678 0 1 1 3.41 0z" transform="matrix(2.5971 0 0 2.5971 -480.06 -740.04)" stroke="#0000a9" fill="none"/>
    </g>
  </g>
  <metadata>
    <rdf:RDF>
      <cc:Work>
        <dc:format>image/svg+xml</dc:format>
        <dc:type rdf:resource="http://purl.org/dc/dcmitype/StillImage"/>
        <cc:license rdf:resource="http://creativecommons.org/licenses/publicdomain/"/>
        <dc:publisher>
          <cc:Agent rdf:about="http://openclipart.org/">
            <dc:title>Openclipart</dc:title>
          </cc:Agent>
        </dc:publisher>
        <dc:title>logic functions - digital electronics</dc:title>
        <dc:date>2008-02-06T04:29:40</dc:date>
        <dc:description>anyone who know these symbols better and can add each one as a separate file properly named - please do so.</dc:description>
        <dc:source>http://openclipart.org/detail/13107/logic-functions---digital-electronics-by-anonymous-13107</dc:source>
        <dc:creator>
          <cc:Agent>
            <dc:title>Anonymous</dc:title>
          </cc:Agent>
        </dc:creator>
        <dc:subject>
          <rdf:Bag>
            <rdf:li>clip art</rdf:li>
            <rdf:li>clipart</rdf:li>
            <rdf:li>computer</rdf:li>
            <rdf:li>digital</rdf:li>
            <rdf:li>electronic</rdf:li>
            <rdf:li>function</rdf:li>
            <rdf:li>image</rdf:li>
            <rdf:li>logic</rdf:li>
            <rdf:li>logic gate</rdf:li>
            <rdf:li>media</rdf:li>
            <rdf:li>png</rdf:li>
            <rdf:li>public domain</rdf:li>
            <rdf:li>svg</rdf:li>
            <rdf:li>symbol</rdf:li>
          </rdf:Bag>
        </dc:subject>
      </cc:Work>
      <cc:License rdf:about="http://creativecommons.org/licenses/publicdomain/">
        <cc:permits rdf:resource="http://creativecommons.org/ns#Reproduction"/>
        <cc:permits rdf:resource="http://creativecommons.org/ns#Distribution"/>
        <cc:permits rdf:resource="http://creativecommons.org/ns#DerivativeWorks"/>
      </cc:License>
    </rdf:RDF>
  </metadata>
</svg>
