<?xml version="1.0"?>
<svg xmlns:rdf="http://www.w3.org/1999/02/22-rdf-syntax-ns#" xmlns="http://www.w3.org/2000/svg" xmlns:cc="http://creativecommons.org/ns#" xmlns:dc="http://purl.org/dc/elements/1.1/" xmlns:svg="http://www.w3.org/2000/svg" id="svg2" viewBox="0 0 203.25 67.6" version="1.0">
  <g id="layer1" transform="translate(-87.302 -397.11)">
    <g id="g9502" transform="translate(26.268 135.33)">
      <path id="path4490" d="m131.6 278.35h-50.09" stroke="#000" stroke-width="2.5971px" fill="none"/>
      <path id="path4492" d="m131.6 312.67h-50.09" stroke="#000" stroke-width="2.5971px" fill="none"/>
      <path id="text4494" d="m67.973 272.8l-2.779 7.54h5.569l-2.79-7.54m-1.156-2.02h2.323l5.773 15.15h-2.131l-1.38-3.89h-6.827l-1.38 3.89h-2.161l5.783-15.15"/>
      <path id="path4502" d="m244.6 296.09h-50.09" stroke="#000" stroke-width="2.5971px" fill="none"/>
      <path id="text4504" d="m251.51 288.37h2.2l4.2 6.23 4.17-6.23h2.21l-5.36 7.94v7.21h-2.06v-7.21l-5.36-7.94"/>
      <path id="path2946" d="m125.2 263.07c7.25 12.58 9.04 22.09 9.04 32.49 0 12.55-3.15 22.31-9.04 32.51 22.78 0 57.7-10.86 70.46-31.83-12.89-19.5-48.04-33.17-70.46-33.17z" stroke="#0000a9" stroke-width="2.6" fill="none"/>
      <path id="text4498" d="m65.424 313.01v5.55h3.287c1.102 0 1.917-0.22 2.445-0.68 0.534-0.46 0.801-1.16 0.801-2.1s-0.267-1.64-0.801-2.09c-0.528-0.45-1.343-0.68-2.445-0.68h-3.287m0-6.23v4.57h3.033c1.001 0 1.745-0.19 2.232-0.56 0.494-0.38 0.741-0.95 0.741-1.72s-0.247-1.34-0.741-1.72c-0.487-0.38-1.231-0.57-2.232-0.57h-3.033m-2.049-1.68h5.235c1.562 0 2.766 0.32 3.611 0.97 0.846 0.65 1.268 1.58 1.268 2.77 0 0.93-0.216 1.67-0.649 2.21-0.433 0.55-1.069 0.89-1.907 1.03 1.008 0.22 1.789 0.67 2.343 1.36 0.562 0.68 0.842 1.54 0.842 2.57 0 1.35-0.46 2.39-1.379 3.13-0.92 0.74-2.229 1.11-3.926 1.11h-5.438v-15.15"/>
    </g>
  </g>
  <metadata>
    <rdf:RDF>
      <cc:Work>
        <dc:format>image/svg+xml</dc:format>
        <dc:type rdf:resource="http://purl.org/dc/dcmitype/StillImage"/>
        <cc:license rdf:resource="http://creativecommons.org/licenses/publicdomain/"/>
        <dc:publisher>
          <cc:Agent rdf:about="http://openclipart.org/">
            <dc:title>Openclipart</dc:title>
          </cc:Agent>
        </dc:publisher>
        <dc:title>logic functions - digital electronics</dc:title>
        <dc:date>2008-02-06T04:29:40</dc:date>
        <dc:description>anyone who know these symbols better and can add each one as a separate file properly named - please do so.</dc:description>
        <dc:source>http://openclipart.org/detail/13106/logic-functions---digital-electronics-by-anonymous-13106</dc:source>
        <dc:creator>
          <cc:Agent>
            <dc:title>Anonymous</dc:title>
          </cc:Agent>
        </dc:creator>
        <dc:subject>
          <rdf:Bag>
            <rdf:li>clip art</rdf:li>
            <rdf:li>clipart</rdf:li>
            <rdf:li>computer</rdf:li>
            <rdf:li>digital</rdf:li>
            <rdf:li>electronic</rdf:li>
            <rdf:li>function</rdf:li>
            <rdf:li>image</rdf:li>
            <rdf:li>logic</rdf:li>
            <rdf:li>logic gate</rdf:li>
            <rdf:li>media</rdf:li>
            <rdf:li>png</rdf:li>
            <rdf:li>public domain</rdf:li>
            <rdf:li>svg</rdf:li>
            <rdf:li>symbol</rdf:li>
          </rdf:Bag>
        </dc:subject>
      </cc:Work>
      <cc:License rdf:about="http://creativecommons.org/licenses/publicdomain/">
        <cc:permits rdf:resource="http://creativecommons.org/ns#Reproduction"/>
        <cc:permits rdf:resource="http://creativecommons.org/ns#Distribution"/>
        <cc:permits rdf:resource="http://creativecommons.org/ns#DerivativeWorks"/>
      </cc:License>
    </rdf:RDF>
  </metadata>
</svg>
