<?xml version="1.0"?>
<svg xmlns:rdf="http://www.w3.org/1999/02/22-rdf-syntax-ns#" xmlns="http://www.w3.org/2000/svg" xmlns:cc="http://creativecommons.org/ns#" xmlns:dc="http://purl.org/dc/elements/1.1/" xmlns:svg="http://www.w3.org/2000/svg" id="svg2" viewBox="0 0 211.25 67.617" version="1.0">
  <g id="layer1" transform="translate(-84.928 -614.68)">
    <g id="g9527" transform="translate(26.268 135.33)">
      <path id="path6854" d="m129.22 495.93h-50.085" stroke="#000" stroke-width="2.5971px" fill="none"/>
      <path id="path6856" d="m129.22 530.24h-50.085" stroke="#000" stroke-width="2.5971px" fill="none"/>
      <path id="text6858" d="m65.599 490.37l-2.78 7.54h5.569l-2.789-7.54m-1.157-2.02h2.323l5.773 15.15h-2.131l-1.379-3.89h-6.828l-1.38 3.89h-2.161l5.783-15.15"/>
      <path id="path6862" d="m250.22 513.66h-50.09" stroke="#000" stroke-width="2.5971px" fill="none"/>
      <path id="text6864" d="m257.14 505.95h2.2l4.2 6.22 4.17-6.22h2.2l-5.36 7.93v7.21h-2.06v-7.21l-5.35-7.93"/>
      <path id="path6868" d="m130.82 480.65c7.26 12.57 9.04 22.08 9.04 32.48 0 12.56-3.15 22.31-9.04 32.52 22.79 0 57.7-10.87 70.47-31.84-12.9-19.5-48.05-33.16-70.47-33.16z" stroke="#0000a9" stroke-width="2.6" fill="none"/>
      <path id="text6870" d="m63.049 530.58v5.55h3.287c1.103 0 1.918-0.22 2.445-0.68 0.534-0.46 0.802-1.16 0.802-2.1s-0.268-1.64-0.802-2.09c-0.527-0.45-1.342-0.68-2.445-0.68h-3.287m0-6.23v4.57h3.034c1.001 0 1.745-0.19 2.232-0.56 0.493-0.38 0.74-0.95 0.74-1.72s-0.247-1.34-0.74-1.72c-0.487-0.38-1.231-0.57-2.232-0.57h-3.034m-2.049-1.68h5.235c1.562 0 2.766 0.33 3.611 0.97 0.846 0.65 1.269 1.58 1.269 2.77 0 0.93-0.217 1.67-0.65 2.22-0.433 0.54-1.068 0.89-1.907 1.02 1.008 0.22 1.789 0.67 2.343 1.36 0.562 0.68 0.843 1.54 0.843 2.57 0 1.35-0.46 2.39-1.38 3.13s-2.229 1.11-3.926 1.11h-5.438v-15.15"/>
      <path id="path6874" stroke-linejoin="round" d="m122.3 480.66c7.26 12.57 9.04 22.09 9.04 32.49 0 12.55-3.15 22.3-9.04 32.51" stroke="#0000a9" stroke-linecap="round" stroke-width="2.6" fill="none"/>
    </g>
  </g>
  <metadata>
    <rdf:RDF>
      <cc:Work>
        <dc:format>image/svg+xml</dc:format>
        <dc:type rdf:resource="http://purl.org/dc/dcmitype/StillImage"/>
        <cc:license rdf:resource="http://creativecommons.org/licenses/publicdomain/"/>
        <dc:publisher>
          <cc:Agent rdf:about="http://openclipart.org/">
            <dc:title>Openclipart</dc:title>
          </cc:Agent>
        </dc:publisher>
        <dc:title>logic functions - digital electronics</dc:title>
        <dc:date>2008-02-06T04:29:40</dc:date>
        <dc:description>anyone who know these symbols better and can add each one as a separate file properly named - please do so.</dc:description>
        <dc:source>http://openclipart.org/detail/13108/logic-functions---digital-electronics-by-anonymous-13108</dc:source>
        <dc:creator>
          <cc:Agent>
            <dc:title>Anonymous</dc:title>
          </cc:Agent>
        </dc:creator>
        <dc:subject>
          <rdf:Bag>
            <rdf:li>clip art</rdf:li>
            <rdf:li>clipart</rdf:li>
            <rdf:li>computer</rdf:li>
            <rdf:li>digital</rdf:li>
            <rdf:li>electronic</rdf:li>
            <rdf:li>function</rdf:li>
            <rdf:li>image</rdf:li>
            <rdf:li>logic</rdf:li>
            <rdf:li>logic gate</rdf:li>
            <rdf:li>media</rdf:li>
            <rdf:li>png</rdf:li>
            <rdf:li>public domain</rdf:li>
            <rdf:li>svg</rdf:li>
            <rdf:li>symbol</rdf:li>
          </rdf:Bag>
        </dc:subject>
      </cc:Work>
      <cc:License rdf:about="http://creativecommons.org/licenses/publicdomain/">
        <cc:permits rdf:resource="http://creativecommons.org/ns#Reproduction"/>
        <cc:permits rdf:resource="http://creativecommons.org/ns#Distribution"/>
        <cc:permits rdf:resource="http://creativecommons.org/ns#DerivativeWorks"/>
      </cc:License>
    </rdf:RDF>
  </metadata>
</svg>
